<svg width="105" height="105" viewBox="0 0 105 105" fill="none" xmlns="http://www.w3.org/2000/svg">
<path d="M98.6913 30.3798C98.6775 30.3794 98.6642 30.3777 98.6505 30.3777H93.3116H50.6988V102.559C50.9908 102.559 51.2545 102.398 51.4022 102.146C52.2932 100.628 53.9417 99.6085 55.8291 99.6085H98.6505C98.6642 99.6085 98.6775 99.6068 98.6913 99.6064V30.3798Z" fill="#0078C8"/>
<path d="M98.6505 30.3777H93.3116H89.8234C90.4785 30.3777 91.0098 30.9088 91.0098 31.5642V98.422C91.0098 99.0774 90.4787 99.6085 89.8234 99.6085H98.6505C99.3057 99.6085 99.837 99.0774 99.837 98.422C99.837 97.1383 99.837 32.939 99.837 31.5642C99.837 30.909 99.3057 30.3777 98.6505 30.3777V30.3777Z" fill="#0268B4"/>
<path d="M91.529 26.454H53.6649C52.0268 26.454 50.6988 27.782 50.6988 29.4201V93.2369H51.1798C51.709 92.4248 52.6235 91.887 53.6649 91.887H91.529V26.454Z" fill="#D5E3F4"/>
<path d="M50.6988 102.559V96.5385V93.2369V30.3777H8.08625H2.74737C2.09221 30.3777 1.56088 30.9088 1.56088 31.5642V62.1941V70.0206V98.4218C1.56088 99.0769 2.092 99.6083 2.74737 99.6083H45.5685C47.4559 99.6083 49.1044 100.628 49.9954 102.146C50.1432 102.398 50.4068 102.559 50.6988 102.559V102.559Z" fill="#0268B4"/>
<path d="M82.4405 85.7121H61.5697C60.6798 85.7121 59.9584 84.9908 59.9584 84.1009V68.4478C59.9584 67.5579 60.6798 66.8365 61.5697 66.8365H82.4405C83.3304 66.8365 84.0518 67.5579 84.0518 68.4478V84.1009C84.052 84.9908 83.3304 85.7121 82.4405 85.7121Z" fill="#F47C7C"/>
<path d="M50.2179 93.2369H50.6988V29.4201C50.6988 27.782 49.3708 26.454 47.7327 26.454H9.47044C8.70602 26.454 8.08624 27.0738 8.08624 27.8382V90.5028C8.08624 91.2672 8.70602 91.887 9.47044 91.887H47.7329C48.7743 91.887 49.6888 92.425 50.2179 93.2369V93.2369Z" fill="#B3DAFE"/>
<path d="M32.38 60.3526V71.8622L39.2157 67.0484C39.8667 66.5899 39.8667 65.6249 39.2157 65.1664L32.38 60.3526Z" fill="#E5EEF9"/>
<path d="M91.9274 26.454H84.8657C85.6301 26.454 86.2499 27.0738 86.2499 27.8382V90.5028C86.2499 91.2672 85.6301 91.887 84.8657 91.887H91.9274C92.6918 91.887 93.3116 91.2672 93.3116 90.5028V27.8382C93.3116 27.0738 92.6918 26.454 91.9274 26.454V26.454Z" fill="#B3DAFE"/>
<path d="M74.936 42.6021H86.5332C87.2889 40.3526 88.5411 38.3026 90.1959 36.6017C92.6304 34.099 94.081 30.6347 93.9195 26.8311C93.6303 20.0162 88.0691 14.4792 81.253 14.2182C73.7282 13.9302 67.5375 19.9448 67.5375 27.4053C67.5375 30.9831 68.9623 34.2264 71.2747 36.6027C72.9291 38.3028 74.1803 40.3526 74.9358 42.6013L74.936 42.6021Z" fill="#FDB97E"/>
<path d="M74.936 42.6021H86.5332V47.3512C86.5332 50.5537 83.9371 53.1498 80.7346 53.1498C77.5321 53.1498 74.936 50.5537 74.936 47.3512V42.6021Z" fill="#678D98"/>
<path d="M93.9195 26.8313C93.6302 20.0164 88.0691 14.4794 81.253 14.2184C80.0567 14.1726 78.8948 14.2873 77.7855 14.5406C83.4553 15.843 87.7806 20.8428 88.0348 26.8313C88.1963 30.6348 86.7457 34.099 84.3111 36.6018C82.6563 38.3028 81.4041 40.3528 80.6484 42.6023H86.5332C87.2889 40.3528 88.5411 38.303 90.1959 36.6018C92.6304 34.099 94.081 30.6348 93.9195 26.8313Z" fill="#FEA95C"/>
<path d="M80.6484 42.6021V47.3512C80.6484 49.4792 79.5012 51.3385 77.7922 52.3473C78.6548 52.8565 79.6603 53.1498 80.7346 53.1498C83.9371 53.1498 86.5332 50.5537 86.5332 47.3512V42.6021H80.6484Z" fill="#537983"/>
<path d="M32.38 60.3526V71.8622L39.2157 67.0484C39.8667 66.5899 39.8667 65.6249 39.2157 65.1664L32.38 60.3526Z" fill="#F9C6C6"/>
<path d="M39.2154 67.0484C39.8664 66.5899 39.8664 65.6249 39.2154 65.1664L32.3798 60.3526V65.6488L36.7913 68.7554L39.2154 67.0484Z" fill="#F9B1B1"/>
<path d="M3.40253 60.3441C2.38545 60.3441 1.56088 61.1686 1.56088 62.1857V67.4909C1.56088 66.4738 2.38545 65.6492 3.40253 65.6492H10.7418V60.3441H3.40253Z" fill="#E94444"/>
<path d="M10.7419 61.5297H32.38V71.8624H10.7419V61.5297Z" fill="#D83131"/>
<path d="M1.56088 63.3712V70.0208C1.56088 71.0379 2.38545 71.8624 3.40253 71.8624H10.7418V61.5297H3.40253C2.38545 61.5295 1.56088 62.3541 1.56088 63.3712V63.3712Z" fill="#F47C7C"/>
<path d="M10.7419 60.3526H32.38V65.6488H10.7419V60.3526Z" fill="#CA2C2C"/>
<path d="M1.56088 62.1942V67.4909C1.56088 66.4738 2.38545 65.6492 3.40253 65.6492H10.7418V60.3526H3.40253C2.38545 60.3526 1.56088 61.1772 1.56088 62.1942V62.1942Z" fill="#EE6161"/>
<path d="M59.6132 61.0542H84.3973C85.3507 61.0542 86.1236 60.2813 86.1236 59.3277C86.1236 58.3743 85.3507 57.6013 84.3973 57.6013H59.6132C58.6598 57.6013 57.8868 58.3743 57.8868 59.3277C57.8866 60.2813 58.6596 61.0542 59.6132 61.0542Z" fill="black"/>
<path d="M82.4408 65.2755H61.5697C59.8205 65.2755 58.3976 66.6986 58.3976 68.4479V84.1009C58.3976 85.8502 59.8205 87.2731 61.5697 87.2731H82.4406C84.1898 87.2731 85.6127 85.8502 85.6127 84.1009V68.4479C85.6129 66.6986 84.1898 65.2755 82.4408 65.2755V65.2755ZM82.4911 84.1009C82.4911 84.1288 82.4684 84.1513 82.4408 84.1513H61.5697C61.5421 84.1513 61.5194 84.1288 61.5194 84.1009V68.4479C61.5194 68.42 61.5421 68.3973 61.5697 68.3973H82.4406C82.4682 68.3973 82.4909 68.42 82.4909 68.4479V84.1009H82.4911Z" fill="black"/>
<path d="M80.7348 7.72101C81.5968 7.72101 82.2957 7.02214 82.2957 6.16012V1.56089C82.2957 0.698864 81.5968 0 80.7348 0C79.8728 0 79.1739 0.698864 79.1739 1.56089V6.15991C79.1739 7.02214 79.8728 7.72101 80.7348 7.72101Z" fill="black"/>
<path d="M68.8385 10.3254C69.1432 10.6301 69.5428 10.7827 69.9421 10.7827C70.3415 10.7827 70.7411 10.6303 71.0458 10.3254C71.6554 9.71586 71.6554 8.7275 71.0458 8.11813L67.7939 4.86606C67.1844 4.25648 66.196 4.25648 65.5866 4.86606C64.9771 5.47564 64.9771 6.464 65.5866 7.07337L68.8385 10.3254Z" fill="black"/>
<path d="M91.5274 10.7827C91.9268 10.7827 92.3264 10.6303 92.6311 10.3254L95.8829 7.07355C96.4925 6.46397 96.4925 5.47562 95.8829 4.86624C95.2733 4.25666 94.285 4.25666 93.6756 4.86624L90.4236 8.1181C89.814 8.72768 89.814 9.71604 90.4236 10.3254C90.7284 10.6303 91.1278 10.7827 91.5274 10.7827Z" fill="black"/>
<path d="M103.439 16.7532H98.8401C97.978 16.7532 97.2792 17.452 97.2792 18.3141C97.2792 19.1761 97.978 19.875 98.8401 19.875H103.439C104.301 19.875 105 19.1761 105 18.3141C105 17.452 104.301 16.7532 103.439 16.7532Z" fill="black"/>
<path d="M58.0303 19.875H62.6293C63.4913 19.875 64.1902 19.1761 64.1902 18.3141C64.1902 17.452 63.4913 16.7532 62.6293 16.7532H58.0303C57.1682 16.7532 56.4694 17.452 56.4694 18.3141C56.4694 19.1761 57.1682 19.875 58.0303 19.875Z" fill="black"/>
<path d="M17.0006 37.5636H41.7847C42.7381 37.5636 43.511 36.7907 43.511 35.8373C43.511 34.8837 42.7381 34.1107 41.7847 34.1107H17.0006C16.0472 34.1107 15.2743 34.8837 15.2743 35.8373C15.2741 36.7907 16.047 37.5636 17.0006 37.5636Z" fill="black"/>
<path d="M17.0006 45.3939H41.7847C42.7381 45.3939 43.511 44.6209 43.511 43.6675C43.511 42.7141 42.7381 41.9412 41.7847 41.9412H17.0006C16.0472 41.9412 15.2743 42.7141 15.2743 43.6675C15.2741 44.6209 16.047 45.3939 17.0006 45.3939Z" fill="black"/>
<path d="M43.511 51.4976C43.511 50.544 42.7381 49.7711 41.7847 49.7711H17.0006C16.0472 49.7711 15.2743 50.544 15.2743 51.4976C15.2743 52.451 16.0472 53.224 17.0006 53.224H41.7847C42.7381 53.224 43.511 52.451 43.511 51.4976V51.4976Z" fill="black"/>
<path d="M17.0006 82.5871H41.7847C42.7381 82.5871 43.511 81.8141 43.511 80.8605C43.511 79.9071 42.7381 79.1342 41.7847 79.1342H17.0006C16.0472 79.1342 15.2743 79.9071 15.2743 80.8605C15.2741 81.8141 16.047 82.5871 17.0006 82.5871Z" fill="black"/>
<path d="M97.3456 28.8168H95.4255C95.4696 28.3504 95.4925 27.8798 95.4925 27.406C95.4925 24.5381 94.6588 21.7851 93.1391 19.4348C92.671 18.7107 91.7047 18.5037 90.9809 18.9713C90.2569 19.4394 90.0494 20.4057 90.5174 21.1295C92.5451 24.2661 92.8296 28.2468 91.8236 30.9294C91.1786 33.5095 88.7734 35.8314 88.5657 36.0645C88.5374 36.0962 88.5089 36.1276 88.481 36.1594C87.2 37.619 86.1717 39.2896 85.4503 41.0413H76.018C75.2067 39.0696 73.9776 37.1428 72.3932 35.5145C70.2685 33.3309 69.0982 30.4512 69.0982 27.4057C69.0982 21.0248 74.2908 15.7694 80.7344 15.7694C80.8867 15.7694 81.0397 15.7723 81.1931 15.7781C82.7858 15.8389 84.3226 16.2231 85.7607 16.9199C86.5367 17.2955 87.4701 16.9715 87.846 16.1956C88.2219 15.4198 87.8974 14.4861 87.1217 14.1103C85.2932 13.2245 83.3386 12.7361 81.3121 12.6586C73.7809 12.3741 67.4237 17.7667 66.1948 24.8931H53.6647C52.5309 24.8931 51.4939 25.3131 50.6988 26.0045C49.9036 25.3131 48.8668 24.8931 47.7327 24.8931H9.47046C7.8465 24.8931 6.52536 26.2143 6.52536 27.8382V28.8168H4.05208C1.81771 28.8168 0 30.6345 0 32.8689V74.9014C0 75.7635 0.698864 76.4623 1.56089 76.4623C2.42292 76.4623 3.12179 75.7635 3.12179 74.9014V73.4115C3.2144 73.4192 3.30805 73.4229 3.40254 73.4229H6.52536C6.52536 91.875 6.49893 90.6744 6.5853 91.0954C6.86044 92.4361 8.04942 93.4477 9.47046 93.4477H47.7329C48.6089 93.4477 48.8624 94.0998 49.1382 94.3639V99.0842C48.084 98.4191 46.8486 98.0474 45.5687 98.0474H4.05208C3.53906 98.0474 3.12179 97.6301 3.12179 97.1171V82.1856C3.12179 81.3236 2.42292 80.6247 1.56089 80.6247C0.698864 80.6247 0 81.3236 0 82.1856V97.1171C0 99.3515 1.81771 101.169 4.05208 101.169H45.5685C46.8293 101.169 48.0095 101.846 48.6491 102.936C49.5808 104.524 51.8379 104.488 52.7486 102.936C53.3882 101.846 54.5686 101.169 55.8294 101.169H97.3456C99.58 101.169 101.398 99.3515 101.398 97.1171V32.8691C101.398 30.6347 99.58 28.8168 97.3456 28.8168V28.8168ZM80.7346 51.589C78.3978 51.589 76.4969 49.688 76.4969 47.3513V44.1631H84.9723V47.3513C84.9723 49.688 83.0711 51.589 80.7346 51.589V51.589ZM53.6649 28.0149H65.9891C66.0749 30.1325 66.6368 32.2562 67.5862 34.1107H59.6132C58.6598 34.1107 57.8866 34.8837 57.8866 35.8371C57.8866 36.7907 58.6596 37.5636 59.6132 37.5636H70.0373C71.347 38.9414 72.2275 40.1691 73.0034 41.941H59.6132C58.6598 41.941 57.8866 42.7139 57.8866 43.6675C57.8866 44.6209 58.6596 45.3939 59.6132 45.3939H73.3751V47.3515C73.3751 48.1991 73.5208 49.0129 73.7857 49.7711H59.6132C58.6598 49.7711 57.8866 50.544 57.8866 51.4976C57.8866 52.451 58.6596 53.224 59.6132 53.224L76.2309 53.1657C77.4767 54.1328 79.039 54.7108 80.7346 54.7108C84.7927 54.7108 88.0941 51.4094 88.0941 47.3513V42.8784C89.2469 39.629 91.0981 37.9543 91.7507 37.2219V90.3262H53.6649C53.662 90.3262 53.6591 90.3266 53.6562 90.3266C53.1759 90.3274 52.651 90.4207 52.2599 90.5489V29.4203C52.2597 28.6455 52.8901 28.0149 53.6649 28.0149V28.0149ZM3.12179 32.8691C3.12179 32.3561 3.53906 31.9388 4.05208 31.9388H6.52536V58.7918H3.40254C3.30805 58.7918 3.2144 58.7957 3.12179 58.8032V32.8691ZM3.40254 70.3014C3.2477 70.3014 3.12179 70.1755 3.12179 70.0206V62.1941C3.12179 62.0392 3.2477 61.9133 3.40254 61.9133H8.08626H9.18096V70.3012H8.08626H3.40254V70.3014ZM10.7419 73.4232H32.38C32.6772 73.4232 33.0031 73.3295 33.2703 73.1434C33.273 73.1416 33.2759 73.1403 33.2786 73.1384L40.1143 68.3247C40.8346 67.8173 41.2648 66.9885 41.2648 66.1074C41.2648 65.2262 40.8346 64.3975 40.1143 63.8903L33.2786 59.0765C33.2757 59.0744 33.2724 59.0729 33.2695 59.0708C33.0406 58.9118 32.7584 58.8092 32.4503 58.7953C32.4268 58.7943 32.4037 58.7918 32.3798 58.7918C29.6953 58.7918 12.0012 58.7918 9.64715 58.7918V30.3777V28.0149H47.7329C48.5078 28.0149 49.1382 28.6453 49.1382 29.4201V90.5486C48.7348 90.4175 48.2126 90.3274 47.7421 90.3264C47.739 90.3264 47.7361 90.326 47.7329 90.326H9.64715V73.4232H10.7419ZM30.8189 70.3014H12.3025V61.9135H30.8189V70.3014ZM37.8408 66.1076L33.9409 68.8541V63.361L37.8408 66.1076ZM98.2759 97.1173C98.2759 97.6303 97.8586 98.0476 97.3456 98.0476H55.8294C54.5495 98.0476 53.3141 98.4195 52.2599 99.0844V94.3641C52.5438 94.0917 52.7804 93.4482 53.6649 93.4482H91.9274C93.5512 93.4482 94.8725 92.127 94.8725 90.5031V31.9386H97.3458C97.8588 31.9386 98.2761 32.3559 98.2761 32.8689V97.1173H98.2759Z" fill="black"/>
</svg>
