<svg width="84" height="105" viewBox="0 0 84 105" fill="none" xmlns="http://www.w3.org/2000/svg">
<path d="M18.3093 35.879L19.4031 37.6291L17.8716 38.9417C17.8718 39.1606 17.8718 36.3167 18.3093 35.879Z" fill="#CED6E0"/>
<path d="M27.7167 35.879L26.4041 37.6291L27.0604 39.1606C26.8416 39.1606 28.3731 36.5353 27.7167 35.879Z" fill="#CED6E0"/>
<path d="M15.0278 65.8511L15.4653 68.2576C15.4653 68.2576 15.4653 73.2893 23.9975 73.727C32.5297 74.1645 33.186 68.2576 32.5297 66.2886L32.3108 64.7571L17.6529 61.913L15.0278 65.8511Z" fill="#F5B54C"/>
<path d="M31.4358 85.5408C31.4358 85.5408 47.1876 77.6649 41.937 73.0707L41.0618 72.4143C41.062 72.4143 30.342 81.6029 31.4358 85.5408Z" fill="#344A5E"/>
<path d="M11.0898 71.758C11.0898 71.758 14.8089 70.8829 18.9657 77.6649C18.9657 77.6649 20.4972 79.6339 20.2784 80.9466C20.0595 82.2592 21.591 82.478 21.591 82.478C21.591 82.478 21.1535 84.447 20.2784 84.8845C19.4032 85.322 18.3094 83.7907 18.3094 83.7907C18.3094 83.7907 17.6531 83.3532 16.9968 83.7907C16.3404 84.2282 15.6841 83.7907 15.6841 83.7907L11.0898 71.758Z" fill="#344A5E"/>
<path d="M40.1869 73.0707C40.1869 73.0707 46.0938 75.0396 51.1255 79.6339C51.1255 79.6339 52.657 81.384 53.532 81.6029C54.4072 81.8217 55.7198 82.6967 55.7198 82.6967C55.7198 82.6967 57.0324 83.5719 58.1263 83.5719C59.2201 83.5719 64.252 85.7597 66.8773 87.9473C69.2837 90.1351 74.5343 93.8542 74.5343 93.8542L72.7842 97.3546C72.7842 97.3546 70.5964 95.8231 68.4088 95.1668C66.221 94.5105 60.7517 92.7604 59.0014 91.01C59.0014 91.01 57.0324 89.6974 54.626 89.2599C52.2195 89.0411 48.0628 88.1661 45.6563 86.1971L28.5919 80.0714L40.1869 73.0707Z" fill="#FFD15C"/>
<path d="M27.4979 39.8169L26.8416 44.63H22.0287L19.1845 42.661L18.7471 35.004L26.8416 33.6913L27.4979 39.8169Z" fill="#F5B54C"/>
<path d="M22.9037 4.37545C23.56 3.71912 24.4352 2.18763 25.3101 2.62532C25.7476 3.0628 24.6538 4.37545 24.6538 4.37545C24.6538 4.37545 23.7786 5.46925 23.3412 5.68809C22.9037 6.12578 22.4662 6.56326 22.4662 6.56326V7.21958C22.4662 7.43842 22.9037 8.09475 22.4662 8.31339C22.0287 8.53202 21.591 8.53223 21.591 8.53223C21.591 8.53223 20.9347 8.75107 20.7159 9.18855C20.497 9.40739 20.2784 9.40739 19.6221 9.18855C18.9657 8.96971 18.3094 8.96971 18.3094 8.96971C18.3094 8.96971 17.8719 8.96971 17.4343 10.2824C16.9966 11.595 15.903 13.7828 15.903 13.7828C15.903 13.7828 16.1218 19.6897 13.934 23.8465C13.934 23.8465 13.7152 24.284 14.1528 25.1591C14.3717 25.8155 18.5283 28.4408 15.028 36.5355L10.8712 40.0357C10.8712 40.0357 8.24594 35.4415 8.0271 33.2537C7.80825 30.8472 8.24594 28.0031 8.24594 28.0031C8.24594 28.0031 8.24594 24.5026 8.24594 23.8463C8.0271 23.19 8.24594 22.0962 8.68342 21.4398C8.68342 21.4398 10.6524 15.0955 11.965 12.4702C13.4965 9.84487 13.934 8.53223 13.934 8.53223C13.934 8.53223 14.8092 7.21958 14.8092 6.7821C14.8092 6.34462 16.5593 3.71933 18.5283 2.84416C18.5283 2.84416 18.9657 2.62532 18.9657 2.40668C19.1846 2.18784 20.4972 0.21887 21.1536 0.21887C21.8099 0.21887 21.8099 0.437713 21.8099 0.65635C21.8099 0.874988 21.3724 1.53152 21.1536 1.53152C21.1536 1.75036 20.7161 1.969 20.7161 1.969L19.8409 3.0628H20.2784C20.2784 3.0628 20.7159 1.969 21.1536 1.969L21.8099 1.09383C22.0287 1.09383 22.4662 -0.218815 23.56 0.218665C24.4352 0.437508 23.1225 1.53131 23.1225 1.53131L22.0287 2.84396L21.1536 3.71912V3.93797L21.591 3.71912C21.591 3.71912 22.2474 2.84396 22.4662 2.84396C22.4662 2.84396 22.9037 2.18763 23.1225 1.96879C23.1225 1.96879 23.7788 0.437302 24.4352 0.656145C25.529 1.09363 24.4352 2.18763 24.4352 2.18763L22.9037 4.37545Z" fill="#FFD15C"/>
<path d="M21.591 5.68803C21.3721 5.90687 21.1535 6.12551 21.1535 6.78183C21.1535 6.78183 20.4972 6.78183 20.4972 7.00067L20.0597 7.21952C20.0597 7.21952 20.2785 7.21952 20.4972 7.43836C20.4972 7.43836 20.716 7.00088 20.9347 7.21952C21.1533 7.43816 21.1535 7.43836 21.1535 7.43836C21.1535 7.43836 21.1535 7.43836 21.3723 7.43836C21.3723 7.43836 21.1535 7.00088 21.3723 7.00088C21.3723 7.00088 21.1535 6.34456 21.3723 5.90708C21.3723 5.90708 21.8098 5.4696 22.0287 5.68823L22.2475 5.90708V6.56319V5.90687C22.4661 5.90687 22.0287 5.46939 21.591 5.68803Z" fill="#F5B54C"/>
<path d="M23.1225 4.37542C22.4661 3.7191 21.591 2.18761 20.716 2.62529C20.2785 3.06277 21.3723 4.37542 21.3723 4.37542C21.3723 4.37542 22.2475 5.46922 22.685 5.68806C23.1225 6.12575 23.7788 6.56323 23.7788 6.56323V7.21955C23.7788 7.4384 23.3413 8.09472 23.7788 8.31336C24.2163 8.53199 24.654 8.5322 24.654 8.5322C24.654 8.5322 25.3103 8.96968 25.5291 9.18852C25.748 9.40737 25.9666 9.40737 26.6229 9.18852C27.2793 8.96968 27.9356 8.96968 27.9356 8.96968C27.9356 8.96968 28.3731 8.96968 28.8107 10.2823C29.2484 11.595 30.342 13.7828 30.342 13.7828C30.342 13.7828 30.1232 19.6897 32.311 23.8465C32.311 23.8465 32.5298 24.284 32.0922 25.1591C31.8733 25.8154 27.7167 28.4407 31.217 36.5355L34.9361 39.8171C34.9361 39.8171 38.2177 37.4106 37.9989 33.2538C37.9989 30.8474 37.78 28.0033 37.78 28.0033C37.78 28.0033 37.78 24.5028 37.78 23.8465C37.9989 23.1901 37.78 22.0963 37.3425 21.44C37.3425 21.44 35.3736 15.0956 34.0609 12.4703C32.5294 9.84505 32.0919 8.53241 32.0919 8.53241C32.0919 8.53241 31.4356 7.21976 31.4356 6.56344C31.4356 6.12596 29.6855 3.50066 27.7165 2.6255C27.7165 2.6255 27.279 2.40665 27.279 2.18802C27.0604 1.96897 25.7478 0 25.0914 0C24.4351 0 24.4351 0.218843 24.4351 0.43748C24.4351 0.656118 24.8726 1.31265 25.0914 1.31265C25.0914 1.53149 25.5289 1.75013 25.5289 1.75013L26.4041 3.06277H25.9666C25.9666 3.06277 25.5291 1.96897 25.0914 1.96897L24.4351 1.0938C24.2163 1.0938 23.7788 -0.218843 22.685 0.218638C21.8098 0.43748 23.1225 1.53128 23.1225 1.53128L24.2163 2.84393L25.0914 3.7191V3.93794L24.654 3.7191C24.654 3.7191 23.9976 2.84393 23.7788 2.84393C23.7788 2.84393 23.3413 2.18761 23.1225 1.96876C23.1225 1.96876 22.4661 0.437275 21.8098 0.656118C21.1535 0.874961 21.591 2.18761 21.591 2.18761L23.1225 4.37542Z" fill="#FFD15C"/>
<path d="M24.654 5.68803C24.8728 5.90687 25.0915 6.12551 25.0915 6.78183C25.0915 6.78183 25.7478 6.78183 25.7478 7.00067L26.1853 7.21952C26.1853 7.21952 25.9664 7.21952 25.7478 7.43836C25.7478 7.43836 25.529 7.00088 25.3103 7.21952C25.0915 7.43836 25.0915 7.43836 25.0915 7.43836C25.0915 7.43836 25.0915 7.43836 24.8726 7.43836C24.8726 7.43836 25.0915 7.00088 24.8726 7.00088C24.8726 7.00088 25.0915 6.34456 24.8726 5.90708C24.8726 5.90708 24.4352 5.4696 24.2163 5.68823L23.9975 5.90708V6.56319V5.90687C23.56 5.90687 23.9977 5.46939 24.654 5.68803Z" fill="#F5B54C"/>
<path d="M9.99603 36.7541H8.90223C8.90223 36.7541 8.02706 38.7231 10.4337 38.9419C12.8402 39.3794 9.99603 36.5353 9.99603 36.7541Z" fill="#FFD15C"/>
<path d="M36.2489 38.5042C36.2489 38.5042 34.9363 39.598 34.9363 40.9106C34.7174 42.0044 34.7174 43.0984 34.9363 44.1922C35.1551 45.286 34.4988 46.8175 34.4988 46.8175C34.4988 46.8175 34.4988 49.224 33.8425 51.193C33.1862 53.1619 32.9673 54.4746 32.9673 54.4746C32.9673 54.4746 32.311 56.881 32.311 58.85C32.311 60.819 31.8735 64.7569 31.8735 64.7569C31.8735 64.7569 30.7797 66.507 30.1234 66.507C29.4671 66.7259 28.5919 67.8197 28.5919 67.8197C28.5919 67.8197 27.4981 68.476 26.1854 68.6948C24.8728 68.9137 23.5601 69.1323 23.5601 69.1323C23.5601 69.1323 21.81 70.2261 19.4034 69.3512C16.9969 68.476 14.1528 67.3822 12.6213 67.8197L12.1838 62.7879C12.1838 62.7879 11.5275 56.0059 11.3086 54.4746C10.8712 52.9431 10.6523 50.0992 10.6523 50.0992C10.6523 50.0992 10.2148 45.286 10.4335 42.2233C10.4335 42.2233 9.996 40.4732 9.996 40.0355L8.9022 38.504C8.9022 38.504 8.46472 37.8477 8.9022 36.7538C8.9022 36.7538 8.68336 38.0665 9.55852 38.2853C10.2148 38.5042 15.9029 35.0037 16.1218 31.7221C16.1218 31.7221 16.3406 32.5973 16.1218 33.4722L17.4344 35.0037L20.0597 40.4731L23.1225 43.5359L25.7478 40.9106L27.9356 36.5352L27.7167 35.8789L28.5919 34.7851C29.0294 34.3476 29.2482 33.9099 29.4671 33.2536L30.1234 31.9409C30.1234 31.9409 30.1234 32.8161 30.9985 34.3474C31.6547 35.8789 34.0611 39.8168 36.2489 38.5042Z" fill="#67C5B8"/>
<path d="M28.5918 35.2226V36.0978C28.5918 37.6293 27.2792 39.5983 26.1854 41.1295C25.0916 42.661 23.7789 43.7548 23.5601 43.9737C23.1226 44.4111 22.6849 44.4111 22.2474 43.9737C21.81 43.5362 17.4343 39.1606 17.2157 36.0978V35.2226C17.4345 35.4415 17.872 35.879 18.3095 36.0978C18.5283 38.9419 22.9038 43.3173 22.9038 43.3173C22.9038 43.3173 27.498 38.9419 27.498 36.0978L28.3732 35.004C28.3732 35.004 28.3732 35.004 28.3732 34.7852L28.5918 35.2226Z" fill="white"/>
<path d="M28.1542 29.7534L27.7168 32.5975C27.7168 32.5975 27.4979 39.3796 22.9037 39.3796C18.3094 39.3796 18.0906 32.5975 18.0906 32.5975L17.6531 29.7534C17.4342 25.378 22.6848 27.3469 22.9037 27.3469C23.1225 27.3467 28.3731 25.1591 28.1542 29.7534Z" fill="#FFD15C"/>
<path d="M29.2483 33.2536C28.8108 34.3474 28.1545 35.2226 27.7168 35.0038C27.2791 34.7849 27.0605 33.6911 27.2793 32.5973C27.7168 30.8472 28.3731 30.6283 28.8108 30.8472C29.4669 31.066 29.9046 31.5035 29.2483 33.2536Z" fill="#FFD15C"/>
<path d="M16.7781 33.2536C17.2156 34.3474 17.8719 35.2226 18.3096 35.0038C18.7473 34.7849 18.9659 33.6911 18.7471 32.5973C18.3096 30.8472 17.6533 30.6283 17.2156 30.8472C16.5593 31.066 16.1218 31.5035 16.7781 33.2536Z" fill="#FFD15C"/>
<path d="M18.5282 33.2536C18.5282 33.2536 18.3094 31.0658 18.7471 30.6283C19.1845 30.4095 19.6222 29.3157 19.6222 29.0969C19.6222 28.6594 20.2785 28.0031 21.5912 28.4405C22.9038 29.0969 25.0916 28.2217 25.0916 28.2217C25.0916 28.2217 26.8418 27.5654 27.0606 28.4405C27.2795 29.3157 27.2795 29.972 27.7169 30.1907L27.9358 32.5971H28.1546C28.1546 32.5971 29.2484 29.9718 28.8109 28.4403C28.3735 26.6902 27.2795 24.5024 24.4355 23.6272C21.5914 22.7521 18.9661 25.3774 18.9661 25.3774C18.9661 25.3774 17.216 26.9088 17.6535 29.5341C18.0909 32.1594 18.5282 33.2536 18.5282 33.2536Z" fill="#425A6B"/>
<path d="M10.4335 95.1668L9.55834 91.0101C9.55834 91.0101 10.2147 86.1969 7.58937 83.353C7.58937 83.353 8.90202 83.1342 10.2147 83.353C11.5273 83.5719 17.2154 84.6657 20.9347 82.0404C20.9347 82.0404 20.9347 75.9146 14.5903 71.9767H11.7462C11.7462 71.9767 4.08912 73.7268 2.55763 75.6958C2.55763 75.6958 -1.16146 79.1962 0.36982 84.4468C1.68247 89.4786 3.65143 91.4475 3.65143 91.4475C3.65143 91.4475 6.27673 95.3855 6.49557 96.4793L10.4335 95.1668Z" fill="#FFD15C"/>
<path d="M5.8392 95.1669C5.8392 95.1669 6.49553 95.6043 8.24565 95.1669C9.99578 94.7294 10.4335 94.5105 10.2146 93.6354L11.0898 96.4795C11.0898 96.4795 11.7461 97.3547 11.7461 98.2296C11.7461 99.1048 10.8709 99.3234 10.8709 99.3234H8.68334L5.8392 98.0108L5.62036 96.6982C5.62057 96.4795 6.05805 95.8232 5.8392 95.1669Z" fill="#E8EAE8"/>
<path d="M12.4025 98.4484C11.965 97.1358 11.0898 96.4795 11.0898 96.4795C11.0898 96.4795 11.3086 97.1358 11.3086 98.0109C11.3086 98.8861 10.4335 98.8861 9.55852 98.2298C8.68336 97.5735 8.02703 97.7923 8.02703 97.7923C8.02703 97.5735 7.58955 96.4797 7.15187 96.0422C6.71439 95.8233 6.05806 96.0422 5.40174 96.261C4.96426 96.4799 4.74542 96.6985 4.74542 97.1362V98.6677C4.74542 100.855 2.77645 101.73 2.77645 101.73C2.77645 101.73 2.12012 101.949 1.4638 102.824C0.807478 103.699 1.68264 104.793 1.68264 104.793H2.77645L8.24588 103.699L12.4027 101.73L12.6215 100.199C12.6213 99.9799 12.8401 99.7611 12.4025 98.4484Z" fill="#425A6B"/>
<path d="M1.90131 104.793C1.90131 104.793 2.55763 104.793 2.55763 103.48L3.65143 102.824C3.65143 102.824 3.65143 103.918 5.40156 103.918C7.15169 103.918 8.24569 103.043 8.24569 103.043C8.24569 103.043 8.90202 102.167 9.99582 101.949C9.99582 101.949 12.84 100.636 12.6211 99.9797C12.6211 99.9797 13.0586 101.074 13.2774 101.292C13.4963 101.511 13.4963 102.168 13.2774 102.386C12.84 102.605 11.7459 103.261 10.871 103.48C9.99582 103.699 9.55834 103.699 8.90202 104.136C8.2459 104.355 5.62061 105.449 1.90131 104.793Z" fill="#E8EAE8"/>
<path d="M8.24592 97.7921C8.24592 97.5733 7.80844 96.4795 7.37075 96.042C6.93327 95.8232 6.27695 96.042 5.62062 96.2608C5.18314 96.4797 4.9643 96.6983 4.9643 97.136V98.6675C4.9643 100.855 2.99533 101.73 2.99533 101.73C2.99533 101.73 2.77649 101.73 2.77649 101.949C4.08914 102.605 4.9643 102.168 5.62062 101.512C6.27695 100.855 6.93327 100.199 7.58959 99.7615C8.24592 99.324 8.90224 98.8863 9.55856 98.4489C8.90224 97.5733 8.24592 97.7921 8.24592 97.7921Z" fill="#344A5E"/>
<path d="M11.0898 71.7581C11.0898 71.7581 14.8089 70.8829 18.9657 77.665C18.9657 77.665 20.4972 79.6339 20.2784 80.9466C20.0595 82.2592 20.7158 82.6967 20.7158 82.6967C20.7158 82.6967 21.1533 84.4469 20.2784 84.8845C20.2784 84.8845 21.3722 84.4471 21.8099 83.5719C22.2475 82.6967 24.4351 80.5091 24.4351 80.5091C24.4351 80.5091 25.5289 82.0406 26.8416 82.2592C28.1542 82.6967 31.4359 85.5409 31.4359 85.5409L36.0301 78.9776C36.0301 78.9776 39.7492 72.6332 41.937 73.0707C41.937 73.0707 40.6244 71.9769 39.5306 72.1956C39.5306 72.1956 38.8743 72.1956 38.8743 71.7581C38.8743 71.1018 37.7805 70.8829 37.7805 70.8829C37.7805 70.8829 37.343 70.8829 37.343 70.4454C37.343 70.2266 36.4678 69.1328 35.8115 68.9139C35.1552 68.6951 35.374 68.4765 35.374 68.4765C35.374 68.4765 34.0614 66.2886 32.3112 66.07C32.3112 66.07 32.7487 66.9452 31.8737 68.2578C30.7799 69.5705 26.4043 71.3206 26.4043 71.3206C26.4043 71.3206 23.1227 72.1958 19.8411 71.1017C16.5595 70.0077 15.4655 68.2576 15.4655 68.2576C15.4655 68.2576 14.5903 68.6951 14.8091 69.1328C15.028 69.5703 14.5903 69.3516 14.5903 69.3516C14.5903 69.3516 13.934 69.5705 13.934 70.0079C13.934 70.4454 13.2777 70.4454 13.2777 70.4454C13.2777 70.4454 13.0588 71.3204 11.0898 71.7581Z" fill="#425A6B"/>
<path d="M76.5035 101.73C76.5035 101.73 76.5035 103.48 78.91 103.043C81.3164 102.605 81.9728 101.73 81.9728 101.73C81.9728 101.73 83.5042 101.73 83.5042 101.074H81.9728L78.2537 102.168L76.5035 101.73Z" fill="#CED6E0"/>
<path d="M71.2529 96.6984C71.2529 96.6984 73.6594 94.2919 73.6594 93.4167L77.1598 95.3857L77.8162 98.4485L76.066 100.199L75.4097 99.9798C74.972 100.199 72.3467 97.3547 71.2529 96.6984Z" fill="#F3F3F3"/>
<path d="M76.2847 101.074C76.2847 101.074 76.7221 102.824 77.8162 102.605C78.91 102.386 79.3476 101.949 79.3476 101.949C79.3476 101.949 80.4414 101.293 81.0978 101.293C81.7541 101.511 84.3794 101.293 83.0667 100.417C81.7541 99.3237 79.3476 100.199 79.3476 100.199L76.2847 101.074Z" fill="#F3F3F3"/>
<path d="M74.5345 98.2296C74.5345 97.7922 74.7534 97.5733 75.4097 97.5733C75.4097 97.5733 76.2848 97.3545 75.8472 96.917C75.4097 96.4795 74.3157 95.8232 74.972 94.948C75.4095 94.2917 76.5035 94.2917 77.1598 94.2917C77.5973 94.2917 77.8161 94.5105 78.035 94.7292C78.4724 95.1666 78.9101 95.823 78.9101 96.0418C78.9101 96.0418 79.7853 96.2607 80.4416 96.917C81.0979 97.5733 81.9731 98.2296 82.1917 98.4485C82.4106 98.4485 83.7232 99.5423 83.2855 100.636C83.2855 100.636 81.9729 100.855 81.0977 100.855C80.2226 100.855 78.9099 101.511 78.9099 101.511C78.9099 101.511 77.3784 102.387 76.5035 101.293C76.066 100.855 75.6283 100.417 75.1908 99.98C74.5345 99.5423 74.3157 98.886 74.5345 98.2296Z" fill="#425A6B"/>
</svg>
