<svg width="104" height="105" viewBox="0 0 104 105" fill="none" xmlns="http://www.w3.org/2000/svg">
<path d="M52 105C80.7188 105 104 81.4949 104 52.5C104 23.505 80.7188 0 52 0C23.2812 0 0 23.505 0 52.5C0 81.4949 23.2812 105 52 105Z" fill="#FFCF11"/>
<path d="M52 88.3887C71.632 88.3887 87.5469 72.3208 87.5469 52.5C87.5469 32.6792 71.632 16.6113 52 16.6113C32.368 16.6113 16.4531 32.6792 16.4531 52.5C16.4531 72.3208 32.368 88.3887 52 88.3887Z" fill="#FFE854"/>
<path d="M65.2567 84.3343L51.9999 79.9864L38.7434 84.3343C38.7434 84.3343 -1.5572 84.2186 6.20806 100.639H51.9999H97.7918C105.557 84.2188 65.2567 84.3343 65.2567 84.3343Z" fill="#0C99E6"/>
<path d="M97.7919 100.639C96.5419 103.233 87.3846 105.639 69.7282 104.335C52.0717 103.03 35.8508 99.2621 35.8508 99.2621V96.3297C35.8508 96.3297 68.8669 92.8852 81.2837 93.1026C93.7008 93.32 99.084 97.9576 97.7919 100.639V100.639Z" fill="#FFAEA1"/>
<path d="M82.0671 93.3761C82.0718 93.2957 82.074 93.2116 82.075 93.1253C81.8132 93.1165 81.5522 93.1071 81.2839 93.1023C68.867 92.885 35.8509 96.3295 35.8509 96.3295V99.2619C35.8509 99.2619 45.2168 101.437 57.461 103.054C58.762 102.768 60.0553 102.48 61.3323 102.191C66.4289 101.036 70.7547 99.9794 73.842 99.1349C75.5694 98.6624 76.8756 98.267 77.8358 97.926C79.0477 97.4957 81.8859 96.4876 82.0671 93.3761V93.3761Z" fill="#F4958C"/>
<path d="M6.20808 100.639C7.58567 103.167 13.1702 106.798 30.2524 103.972C47.3346 101.146 77.6965 94.3525 77.7682 93.1206C77.8399 91.8887 74.9677 89.5517 71.2355 89.5517C67.5033 89.5517 66.929 90.6476 64.7757 90.6476C62.6224 90.6476 59.895 87.2328 57.5983 87.7039C55.3016 88.175 53.9378 92.8852 53.9378 92.8852C53.9378 92.8852 32.1902 91.4359 20.6346 92.1605C9.07905 92.885 4.62898 97.7402 6.20808 100.639V100.639Z" fill="#FFCFC2"/>
<path d="M14.821 100.639C13.2419 97.7402 17.692 92.8852 29.2475 92.1605C30.4466 92.0852 31.7565 92.0337 33.1392 92.0013C28.6272 91.9207 24.1572 91.9396 20.6346 92.1605C9.07905 92.885 4.62898 97.7402 6.20808 100.639C7.39514 102.818 11.7079 105.815 23.8103 104.793C18.1012 104.16 15.667 102.192 14.821 100.639V100.639Z" fill="#FFAEA1"/>
<path d="M4.17682 85.6387C4.17682 85.6387 4.17682 82.9576 4.17682 82.2691C4.17682 81.5807 5.18168 81.5083 5.46869 82.2691C5.75571 83.0299 5.6708 85.7142 6.09005 86.4554V87.7039L4.17682 85.6387Z" fill="#F4958C"/>
<path d="M99.8232 85.6387C99.8232 85.6387 99.8232 82.9576 99.8232 82.2691C99.8232 81.5807 98.8183 81.5083 98.5313 82.2691C98.2443 83.0299 98.3292 85.7142 97.9099 86.4554V87.7039L99.8232 85.6387Z" fill="#F4958C"/>
<path d="M101.806 83.7637C101.645 83.3017 100.945 83.492 100.406 84.0898C100.03 84.5075 98.6032 85.8272 97.6761 86.668C97.2233 87.0786 96.541 87.0884 96.0763 86.6918C95.4275 86.1385 95.523 85.1004 96.2638 84.6806C97.3182 84.0832 98.5532 83.2693 98.7917 82.6222C99.2223 81.4537 98.1725 81.3179 97.6074 81.7254C97.0421 82.1331 89.9185 84.1169 89.9185 84.1169L78.0973 68.0297C78.0973 68.0297 77.3796 44.8411 74.5085 42.4497C71.6375 40.0583 56.7371 37.5221 56.7371 37.5221V32.3047H52H47.2629V37.5221C47.2629 37.5221 32.3625 40.0583 29.4915 42.4497C26.6205 44.8411 25.9027 68.0297 25.9027 68.0297L14.0816 84.1169C14.0816 84.1169 6.95802 82.1331 6.39273 81.7254C5.82743 81.3177 4.77788 81.4537 5.20851 82.6222C5.44698 83.2695 6.68198 84.0832 7.7364 84.6806C8.47699 85.1002 8.57266 86.1383 7.92388 86.6918C7.45893 87.0882 6.77663 87.0786 6.32407 86.668C5.39721 85.8272 3.96985 84.5073 3.59366 84.0898C3.05538 83.492 2.35562 83.3017 2.19413 83.7637C2.03265 84.2257 4.4281 87.7039 4.9934 88.492C5.5587 89.2801 8.03479 90.9105 9.56899 90.6117C11.1032 90.3129 16.4503 87.378 16.4503 87.378C16.4503 87.378 31.81 75.7113 33.2454 71.5808C34.6809 67.4504 35.8294 53.5155 35.8294 53.5155H68.171C68.171 53.5155 69.3194 67.4504 70.7549 71.5808C72.1904 75.7113 87.5501 87.378 87.5501 87.378C87.5501 87.378 92.8974 90.3129 94.4316 90.6117C95.9658 90.9105 98.4419 89.2801 99.0072 88.492C99.5721 87.7039 101.968 84.2255 101.806 83.7637V83.7637Z" fill="#FFAEA1"/>
<path d="M47.2629 37.5223C47.2629 37.5223 54.512 38.102 55.2299 32.3049H47.2629V37.5223Z" fill="#F4958C"/>
<path d="M61.0717 15.725C61.0717 15.725 61.5745 11.9388 59.7687 9.82486C59.4981 9.50822 58.9842 9.72376 59.0171 10.1407L59.0384 10.4087C59.0384 10.4087 58.0021 8.36737 55.3349 7.56572C54.9646 7.45436 54.6532 7.86575 54.8502 8.20126L54.9719 8.40839C54.9719 8.40839 53.3641 6.78519 48.0356 6.67302C47.6441 6.66481 47.4504 7.15023 47.7362 7.42011L48.0415 7.70825C48.0413 7.70825 46.035 8.0655 43.3769 9.69033C43.0489 9.8909 43.1307 10.3937 43.5045 10.4799L43.722 10.5301C42.6932 11.7245 42.1244 12.9685 41.8344 13.7699C41.7084 14.1182 42.0462 14.4541 42.3891 14.3214C42.732 14.1887 41.5727 18.1463 42.5618 21.4468L52 23.5991L61.4382 21.4466C61.4382 21.4466 62.0102 18.6725 61.0717 15.725V15.725Z" fill="#8C4F5C"/>
<path d="M48.1394 15.534C45.3586 14.9319 43.3801 13.8298 42.3893 14.3212C42.3893 14.3212 41.5729 18.1461 42.562 21.4467L48.3878 22.7754L48.1394 15.534Z" fill="#7B3C47"/>
<path d="M59.2026 23.2698C59.2026 23.2698 60.1303 20.9893 61.7839 21.5188C63.4375 22.0481 61.7439 26.9901 58.5168 27.3014L59.2026 23.2698Z" fill="#FFAEA1"/>
<path d="M44.7973 23.2698C44.7973 23.2698 43.8697 20.9893 42.216 21.5188C40.5624 22.0481 42.2561 26.9901 45.4831 27.3014L44.7973 23.2698Z" fill="#F4958C"/>
<path d="M59.4337 20.3921C59.3393 20.1596 59.2629 19.8265 59.1906 19.4418L52 17.3362L44.8093 19.4418C44.737 19.8265 44.6607 20.1596 44.5662 20.3921C44.1413 21.4384 43.6075 21.6515 43.5364 21.6759C43.5311 21.8396 43.5278 22.004 43.5278 22.1701C43.5278 28.4687 47.321 35.8558 52 35.8558C56.6789 35.8558 60.4721 28.4689 60.4721 22.1701C60.4721 22.004 60.4688 21.8396 60.4636 21.6759C60.3925 21.6515 59.8587 21.4382 59.4337 20.3921Z" fill="#FFCFC2"/>
<path d="M46.4412 22.17C46.4412 20.9963 46.5745 19.8856 46.8194 18.853L44.8091 19.4416C44.7368 19.8263 44.6604 20.1594 44.566 20.3919C44.141 21.4382 43.6072 21.6513 43.5361 21.6757C43.5308 21.8394 43.5276 22.0038 43.5276 22.17C43.5276 28.4685 47.3207 35.8556 51.9997 35.8556C52.4966 35.8556 52.9831 35.7716 53.4564 35.6153C49.4718 34.2987 46.4412 27.8 46.4412 22.17V22.17Z" fill="#FFAEA1"/>
<path d="M52 16.181C49.0386 16.181 47.8534 15.2332 46.8286 15.2307H46.8274C46.6379 15.2303 46.4536 15.2625 46.2649 15.3388C45.3058 15.7272 45.0862 17.9693 44.8091 19.4416H59.1906C58.9135 17.9693 58.6942 15.7272 57.7348 15.3388C57.5459 15.2623 57.3619 15.2303 57.1723 15.2307H57.1711C56.1466 15.2332 54.9615 16.181 52 16.181Z" fill="white"/>
<path d="M50.3851 17.8114C50.3851 16.9109 51.108 16.181 52 16.181C49.0386 16.181 47.8534 15.2332 46.8286 15.2307H46.8274C46.6379 15.2303 46.4536 15.2625 46.2649 15.3388C45.3058 15.7272 45.0862 17.9693 44.8091 19.4416H52C51.108 19.4418 50.3851 18.7117 50.3851 17.8114Z" fill="#EBF0F3"/>
<path d="M68.1707 53.5151L65.6646 62.1641C65.3936 63.0993 65.2559 64.0689 65.2559 65.0432V84.3341H38.744V65.0432C38.744 64.0687 38.6065 63.0993 38.3353 62.1641L35.8292 53.5151C37.1414 53.5151 38.2037 52.4426 38.2037 51.1178V39.3832C40.2492 38.891 42.2906 38.4645 43.9156 38.1445V43.7227C43.9156 48.2305 47.5351 51.8848 51.9999 51.8848C56.4648 51.8848 60.0843 48.2305 60.0843 43.7227V38.1445C61.7093 38.4645 63.7507 38.891 65.7962 39.3832V51.1178C65.7962 52.4426 66.8585 53.5151 68.1707 53.5151V53.5151Z" fill="#3E4A68"/>
<path d="M51.7091 62.959C44.1057 62.959 41.8059 61.8267 40.4261 59.9078L35.8292 53.5151L38.3355 62.1641C38.6065 63.0993 38.744 64.0689 38.744 65.0432V84.3343H43.0624V65.7335C43.0624 65.1658 42.9871 64.6049 42.8473 64.0621C49.2699 63.898 51.7091 62.959 51.7091 62.959Z" fill="#303A59"/>
</svg>
