<svg width="74" height="105" viewBox="0 0 74 105" fill="none" xmlns="http://www.w3.org/2000/svg">
<path d="M71.3745 0C72.3599 0 73.1363 0.83959 73.0594 1.82191L72.1433 13.5356L69.3391 49.3951L65.1141 103.442C65.0454 104.321 64.3114 105 63.4292 105H9.63347C8.75102 105 8.01725 104.321 7.94855 103.442L1.45844 20.4237L0.00525863 1.82171C-0.0716457 0.839385 0.704779 0 1.69018 0H71.3745Z" fill="#CAEDFF"/>
<path d="M71.3739 0.000610352C72.3593 0.000610352 73.1357 0.839995 73.0588 1.82232L72.1442 13.5352L69.3397 49.3951L65.1143 103.441C65.0456 104.32 64.3116 104.999 63.4294 104.999H61.095L65.44 49.3951L68.2446 13.5352L69.3038 0.000610352H71.3739Z" fill="#76C2E0"/>
<path d="M62.8445 21.4233C63.9614 21.1513 65.02 22.0453 64.9342 23.1915L63.7591 38.9138L62.3824 57.3396L59.4917 96.035C59.4258 96.917 58.6908 97.5991 57.8061 97.5991H15.3648C14.4803 97.5991 13.7453 96.917 13.6793 96.0348L8.60072 28.0387C8.54206 27.2526 9.03302 26.5271 9.7873 26.2978C15.3972 24.5934 24.0396 23.0971 32.0057 26.3548C42.0584 30.4652 50.5884 24.8255 61.081 21.8863C61.662 21.7233 62.2498 21.5681 62.8445 21.4233Z" fill="#50B8FF"/>
<path d="M62.8381 21.4249C63.9579 21.1525 65.0202 22.0416 64.9344 23.1906L63.7602 38.9125L62.3816 57.3384L59.4917 96.0354C59.4258 96.9176 58.6908 97.5997 57.8061 97.5997H55.7765L58.7833 57.3384L60.1618 38.9125L61.4415 21.7864C61.9021 21.6603 62.3679 21.5393 62.8381 21.4249Z" fill="#2195F2"/>
<path d="M55.3852 35.9565C54.5099 35.9565 53.8008 35.2472 53.8008 34.3721V33.9943C53.8008 33.1193 54.5101 32.4099 55.3852 32.4099C56.2603 32.4099 56.9696 33.1193 56.9696 33.9943V34.3721C56.9698 35.2472 56.2605 35.9565 55.3852 35.9565Z" fill="#CAEDFF"/>
<path d="M48.0479 42.8603C47.1726 42.8603 46.4634 42.151 46.4634 41.2759V40.8982C46.4634 40.0231 47.1728 39.3137 48.0479 39.3137C48.9229 39.3137 49.6323 40.0231 49.6323 40.8982V41.2759C49.6323 42.151 48.9229 42.8603 48.0479 42.8603Z" fill="#CAEDFF"/>
<path d="M55.3852 59.852C54.5099 59.852 53.8008 59.1427 53.8008 58.2676V57.8899C53.8008 57.0148 54.5101 56.3054 55.3852 56.3054C56.2603 56.3054 56.9696 57.0148 56.9696 57.8899V58.2676C56.9698 59.1427 56.2605 59.852 55.3852 59.852Z" fill="#CAEDFF"/>
<path d="M28.3754 53.8074C27.5003 53.8074 26.7909 53.098 26.7909 52.2229V51.8452C26.7909 50.9701 27.5003 50.2607 28.3754 50.2607C29.2504 50.2607 29.9598 50.9701 29.9598 51.8452V52.2229C29.9598 53.098 29.2504 53.8074 28.3754 53.8074Z" fill="#CAEDFF"/>
<path d="M18.9803 40.0971C18.1053 40.0971 17.3959 39.3877 17.3959 38.5127V38.1349C17.3959 37.2598 18.1053 36.5505 18.9803 36.5505C19.8554 36.5505 20.5648 37.2598 20.5648 38.1349V38.5127C20.5648 39.3877 19.8554 40.0971 18.9803 40.0971Z" fill="#CAEDFF"/>
<path d="M31.149 35.7677C30.274 35.7677 29.5646 35.0583 29.5646 34.1833V33.8055C29.5646 32.9304 30.274 32.2211 31.149 32.2211C32.0241 32.2211 32.7335 32.9304 32.7335 33.8055V34.1833C32.7337 35.0583 32.0241 35.7677 31.149 35.7677Z" fill="#CAEDFF"/>
<path d="M37.5864 82.5952H27.641C26.7075 82.5952 25.9509 81.8385 25.9509 80.9052V70.9597C25.9509 70.0262 26.7077 69.2697 27.641 69.2697H37.5864C38.52 69.2697 39.2765 70.0264 39.2765 70.9597V80.9052C39.2765 81.8385 38.5197 82.5952 37.5864 82.5952Z" fill="#CAEDFF"/>
<path d="M44.5704 61.4108L35.1706 58.1618C34.2884 57.8568 33.8204 56.8944 34.1253 56.0122L37.3744 46.6124C37.6793 45.7302 38.6418 45.2622 39.524 45.5671L48.9238 48.8162C49.806 49.1211 50.274 50.0836 49.969 50.9658L46.72 60.3656C46.415 61.2478 45.4526 61.7158 44.5704 61.4108Z" fill="#CAEDFF"/>
</svg>
